<svg id="_78bf026f-5d34-4e97-88cf-29aa2cfb8006" data-name="78bf026f-5d34-4e97-88cf-29aa2cfb8006" xmlns="http://www.w3.org/2000/svg" width="1084.16" height="758.56" viewBox="0 0 1084.16 758.56"><title>clientes_draw</title><path d="M461.23,29.16C417.16,12.4,370.59-1.6,323.05.16c-69.9,2.58-137,41.91-169.86,99.66-27.88,48.93-31.32,106.28-43.33,160.58C95.08,327.29,66.72,390.88,36.44,453.05,20.18,486.45,3,520.57.35,557.18c-3.7,50.83,22.27,101.48,63,135.29S158.17,744.12,212.46,748c28.89,2.07,59.08.15,84.74-12.43,27.15-13.31,46.94-37.36,74.2-50.48,25.26-12.16,54.81-13.86,83.17-12.28a394.41,394.41,0,0,1,108.58,21.6c39.64,13.92,76.5,34.09,116,48.21s83.74,22,124.16,10.22c38-11.07,68-38,95.05-65.17a1155.23,1155.23,0,0,0,121.22-143.39c24.41-34.21,47.13-70.3,57.92-110.17,20.64-76.23-7.76-162.23-70.75-214.29C954.56,176.7,884.52,158,816,146.62c-62.52-10.36-134.81-11-192.36-38C568.72,82.84,518.78,51.06,461.23,29.16Z" transform="translate(0 -0.01)" fill="#ff8a80" opacity="0.1" style="isolation:isolate"/><polygon points="632.58 618.99 632.58 655.32 642.91 655.32 640.91 616.32 632.58 618.99" fill="#aaabb0"/><polygon points="477.41 611.66 477.41 647.99 487.75 647.99 485.75 608.99 477.41 611.66" fill="#aaabb0"/><rect x="644.58" y="551.66" width="13.33" height="64.67" rx="6.66" fill="#aaabb0"/><path d="M480.24,537.33h0a6.67,6.67,0,0,1,6.67,6.67v65.66a6.67,6.67,0,0,1-6.67,6.67h0a6.67,6.67,0,0,1-6.66-6.67V544A6.67,6.67,0,0,1,480.24,537.33Z" transform="translate(0 -0.01)" fill="#aaabb0"/><path d="M674.92,164.67s13.33-5.67,15.33,0,3,54.67,3,54.67H680.58Z" transform="translate(0 -0.01)" fill="#aaabb0"/><path d="M528.92,164.67s-13.34-5.67-15.34,0-3,54.67-3,54.67h12.67Z" transform="translate(0 -0.01)" fill="#aaabb0"/><polygon points="530.91 115.99 528.91 156.66 537.91 156.66 537.91 114.99 530.91 115.99" fill="#aaabb0"/><path d="M523.25,219.34l2.67-58.67s-1-13,30.66-9,124.34,12,124.34,12v55.67Z" transform="translate(0 -0.01)" fill="#33323d"/><path d="M649.92,528.34l-5,89.66s-73.34,40.67-162.34,2l8-94.33Z" transform="translate(0 -0.01)" fill="#33323d"/><polygon points="580.25 175.32 581.91 233.32 685.25 233.32 679.25 156.66 580.25 175.32" fill="#444053"/><rect x="493.41" y="489.99" width="97.34" height="123.33" fill="#4c4981"/><path d="M554.92,540.34s14-11,16.33-7.67-8.32,17.67-12.66,16S554.92,540.34,554.92,540.34Z" transform="translate(0 -0.01)" fill="#ffb9b9"/><rect x="304.51" y="215.99" width="638.97" height="320" fill="#504f60"/><path d="M523.58,113.67s-5-46.67,0-52.33S612.58,2,690.25,65c0,0,7.33.34,6,17a200.52,200.52,0,0,0,.16,31.67S529.25,125.67,523.58,113.67Z" transform="translate(0 -0.01)" fill="#33323d"/><path d="M523.58,113.67s-5-46.67,0-52.33S612.58,2,690.25,65c0,0,7.33.34,6,17a200.52,200.52,0,0,0,.16,31.67S529.25,125.67,523.58,113.67Z" transform="translate(0 -0.01)" opacity="0.1" style="isolation:isolate"/><path d="M523.58,119.67s-5-46.67,0-52.33S612.58,8,690.25,71c0,0,7.33.34,6,17a200.52,200.52,0,0,0,.16,31.67S529.25,131.67,523.58,119.67Z" transform="translate(0 -0.01)" fill="#33323d"/><path d="M699.25,98.34s5.33,20,3.67,23.33-1.36,12.67-1.36,12.67.36,6-2.31,6.66-5,1-2.84,3,0,5,0,5-1.17,4.67,0,7.67-6.84,4.25-6.16,8,2.92,14.33,0,14.67,1,13.33-1.63,13.33-4.5,23.33-4.5,23.33-18.5-15.66-30.83-11.33c0,0,1-13,5-17.67s2.79-16.66,2.79-16.66l19.84-59.67Z" transform="translate(0 -0.01)" fill="#4c4981"/><path d="M600.25,374.12c-4.33,4.79-9-20.79-9-20.79s-12.33,17-20.33,5.67c-5.54-7.85-1.17-30.09,2-43,1.42-5.74,2.62-9.64,2.62-9.64l18-3s.06,3.92.46,8.68c.54,6.43,1.71,14.41,4.2,16.32C602.59,331.67,604.59,369.29,600.25,374.12Z" transform="translate(0 -0.01)" fill="#ae6e79"/><path d="M590.92,74.67s-31.34-.33-39,16.33-8,22.34-11,25,32.66,16.67,32.66,16.67L575.25,190s7-7.09,18.33-3.88,25.67,0,25.67,0-.67-1.21,8.67,0,39-14.45,39-14.45.49-25.08-.17-30.42,21.16-44.58,21.16-44.58,17-16.33-.66-22c0,0-6.25-9.42-22.33-9.33S590.92,74.67,590.92,74.67Z" transform="translate(0 -0.01)" opacity="0.1" style="isolation:isolate"/><path d="M590.92,73.67s-31.34-.33-39,16.33-8,22.34-11,25,32.66,16.67,32.66,16.67L575.25,189s7-7.09,18.33-3.88,25.67,0,25.67,0-.67-1.21,8.67,0,39-14.45,39-14.45,11.66-19,11-24.33,23.33-45.67,23.33-45.67,3.67-21.33-14-27c0,0-6.25-9.42-22.33-9.33S590.92,73.67,590.92,73.67Z" transform="translate(0 -0.01)" fill="#4c4981"/><path d="M594.08,312c-6.87-2.14-17.65,2.58-21.08,4,1.42-5.74,2.62-9.64,2.62-9.64l18-3S593.65,307.29,594.08,312Z" transform="translate(0 -0.01)" opacity="0.1" style="isolation:isolate"/><path d="M550.58,115h-9.66s-2,20.34,0,26.34,3,5.13,2.33,9.57,4.67,11.24,4.67,11.24.66,16.76,4,23-3.67,34.22-3.67,34.22a40.27,40.27,0,0,0,8.33,13c5.67,5.66,8.67,26.66,7,34.66s4.67,11,4.67,11,2.67,37.34,3.67,37.34,20.33-10,26.33-1.34l-4.67-34.33.34-66.33s-6.34-8.34-3-15.67S588.25,173,588.25,173l-8.67-38.66Z" transform="translate(0 -0.01)" fill="#4c4981"/><path d="M490.58,642s-14-3-14.33,0-16.67,33.67,3.67,42.67,74.66,28.33,163,3.33c0,0,5.66,2,4.33-10.33s-1.33-26-1.33-26-13.34-3.67-23.34-2.33S525.58,668.34,490.58,642Z" transform="translate(0 -0.01)" fill="#33323d"/><path d="M490.58,642s-14-3-14.33,0-16.67,33.67,3.67,42.67,74.66,28.33,163,3.33c0,0,5.66,2,4.33-10.33s-1.33-26-1.33-26-13.34-3.67-23.34-2.33S525.58,668.34,490.58,642Z" transform="translate(0 -0.01)" opacity="0.1" style="isolation:isolate"/><path d="M490.58,638s-14-3-14.33,0-16.67,33.67,3.67,42.67,74.66,28.33,163,3.33c0,0,5.66,2,4.33-10.33s-1.33-26-1.33-26-13.34-3.67-23.34-2.33S525.58,664.34,490.58,638Z" transform="translate(0 -0.01)" fill="#33323d"/><path d="M572.22,127c-.86,4.89-2.81,9.59-3.11,14.54s1.61,10.58,6.18,12.52a20.39,20.39,0,0,1,3.69,1.5c1.76,1.19,2.48,3.43,2.85,5.53a30.2,30.2,0,0,1,.35,8.22c-.25,2.76-.84,5.73.52,8.14,2.39,4.27,8.62,3.64,13.36,2.44l-1.63,12.63c-.13,1-.21,2.13.52,2.81a3.15,3.15,0,0,0,2.4.52c4.12-.26,8.36-.83,11.89-3s6.16-6.21,5.49-10.28c-.78-4.72-5.66-8.47-5-13.21.51-3.67,4.1-6,6.46-8.82,4.27-5.16,4.5-13,1.15-18.84s-9.82-9.46-16.48-10.12c-3.69-.37-7.53.08-11-1.2a8.35,8.35,0,0,1-5.1-5.38" transform="translate(0 -0.01)" fill="#444053"/><path d="M455.92,571.67l3.49-7.6s18.84-17.55,23.17-18.78,22-6.59,24.67-6.59S558.59,536,558.59,536l5.66,13.34-61.08,13.41-20.59,15Z" transform="translate(0 -0.01)" fill="#767d9f"/><path d="M602.67,367l-3.19,24.55L598.25,401l-14.33,2s-1.55-3.32-3.74-8.42c-6.65-15.48-19.17-47.4-11.91-52.91,9.65-7.34,12,17,12,17l11-5.34Z" transform="translate(0 -0.01)" fill="#ffb9b9"/><rect x="527.91" y="412.66" width="72.37" height="109.33" fill="#fff"/><rect x="527.91" y="412.66" width="72.37" height="109.33" opacity="0.1" style="isolation:isolate"/><rect x="534.35" y="431.19" width="109.33" height="72.37" transform="translate(40.52 981.69) rotate(-81.59)" fill="#fff"/><rect x="554.13" y="430.25" width="56.27" height="37.25" transform="translate(53.05 959.22) rotate(-81.59)" fill="#ff8a80"/><rect x="571.09" y="476.61" width="12.22" height="45.13" transform="translate(-1.02 997.15) rotate(-81.59)" fill="#ff8a80"/><circle cx="619.25" cy="94.99" r="41.83" opacity="0.1" style="isolation:isolate"/><circle cx="619.25" cy="93.99" r="41.83" fill="#ae6e79"/><path d="M584.76,125a4.8,4.8,0,0,1,.29-3.23c1.59-3.31,6.12-3.6,9.79-3.43,8.63.4,18.1.45,24.85-5,2.8-2.24,5.93-7.87,10-6.8,3.62.95,5.13,5.86,8.9,6.95,2.73.79,5.56-.47,8.34-1,4-.79,8.1-.13,12.16-.1s8.47-.74,11.24-3.71c3.74-4,3.13-10.25,2.8-15.73a84.69,84.69,0,0,1,1.43-21.14c1.36-6.92,3.45-14.66-.37-20.59C670.55,45.57,663,44,657.86,39.69c-4.82-4-7.37-10.41-12.46-14.12-6.41-4.67-15.12-4-23-3.19L605.3,24.2c-4.41.47-9,1-12.63,3.63-6.55,4.74-7.45,14.59-13.65,19.78-2.76,2.3-6.29,3.44-9.44,5.16s-6.19,4.44-6.55,8c-.3,3,1.32,5.77,2.11,8.66,1.87,6.9-1,14-2.92,20.95s-2.23,15.39,3.2,20c1.1.94,2.38,1.66,3.45,2.64,3.67,3.35,4.17,9,3.32,13.88" transform="translate(0 -0.01)" fill="#444053"/><ellipse cx="622.66" cy="143.74" rx="1" ry="2.5" fill="#444053"/><ellipse cx="622.66" cy="154.16" rx="1" ry="2.5" fill="#444053"/><path d="M600.48,374.05c1.07-1.23,1.78-4.39,2.19-8.56l-11.92-14.86S595.8,379.44,600.48,374.05Z" transform="translate(0 -0.01)" fill="#ae6e79"/><path d="M613.92,619.67s-19.56,30.24-80.67,27c-57.57-3-85.67-31.33-84.33-41.33S445.25,571,457.58,564c7.15-4,16.56-1.65,23.2,1.09a13.11,13.11,0,0,0,13.77-2.47c6.07-5.47,17.39-11.63,35.26-6.78a12.72,12.72,0,0,0,7-.13c7.44-2.27,25.15-6.21,38,2.54a13,13,0,0,0,13.92.53l.18-.11c6-3.67,34,31,34,31S624.25,616.34,613.92,619.67Z" transform="translate(0 -0.01)" opacity="0.1" style="isolation:isolate"/><path d="M613.92,620.67s-19.56,30.24-80.67,27c-57.57-3-85.67-31.33-84.33-41.33S445.25,572,457.58,565c7.15-4,16.56-1.65,23.2,1.09a13.11,13.11,0,0,0,13.77-2.47c6.07-5.47,17.39-11.63,35.26-6.78a12.72,12.72,0,0,0,7-.13c7.44-2.27,25.15-6.21,38,2.54a13,13,0,0,0,13.92.53l.18-.11c6-3.67,34,31,34,31S624.25,617.34,613.92,620.67Z" transform="translate(0 -0.01)" fill="#767d9f"/><circle cx="533.25" cy="592.67" r="39.84" transform="translate(-186.21 249.17) rotate(-22.5)" opacity="0.1" style="isolation:isolate"/><circle cx="533.25" cy="593.67" r="39.84" transform="translate(-186.6 249.25) rotate(-22.5)" fill="#ffb9b9"/><path d="M521.83,559.23c-4.18,1.13-8.3,3.29-10.34,6.84-1.23,2.14-1.66,4.71-3.44,6.49-2.52,2.53-6.77,2.58-10.18,4s-5.66,6.42-2.32,8c-3.48.18-6.06,3.39-6.49,6.58s.78,6.37,1.95,9.41c3.82,9.84,7.93,20.11,16.35,27.11,13.72,11.42,34.4,10.89,52.83,9.68a8.58,8.58,0,0,0,4.33-1c2-1.32,2.25-3.85,2.58-6.07,1.39-9.48,6.53-18.09,9.89-27.14s4.74-19.68-.92-27.69C567.74,563.56,535.85,555.43,521.83,559.23Z" transform="translate(0 -0.01)" fill="#b96b6b"/><path d="M599.48,391.55,598.25,401l-14.33,2s-1.55-3.32-3.74-8.42L599.25,391Z" transform="translate(0 -0.01)" opacity="0.1" style="isolation:isolate"/><path d="M614.58,600.34l8.34-9.67-1.67-53.33a86.76,86.76,0,0,0,1.67-11.67c.33-5.67-4.17-18.33-4.17-18.33a40.34,40.34,0,0,1,2.83-7.34c2-4-2.82-13-2.82-13s-7.18-23.33-4.18-35-.73-18.33-.73-18.33-2.93-13-2.6-18.33S604.58,405,604.58,405l-5.33-13-21.33,4v45s1.33,43,0,51.34,2.66,16.33,2.66,16.33-2.33,12.33-.33,17,6,16,6,16a26.07,26.07,0,0,0,.67,12.16c2,5.84,0,9.17,0,9.17Z" transform="translate(0 -0.01)" fill="#767d9f"/><g opacity="0.1"><path d="M674.59,68.52a84.72,84.72,0,0,0-1.51,17.77,85.07,85.07,0,0,1,1.55-14.76c.88-4.44,2-9.22,1.76-13.65A83.22,83.22,0,0,1,674.59,68.52Z" transform="translate(0 -0.01)"/><path d="M568.9,109.8c-1.07-1-2.35-1.7-3.45-2.65-2.92-2.49-4.15-6.1-4.39-10-.29,5,.73,9.84,4.39,13,1.1.95,2.38,1.67,3.45,2.65a12.21,12.21,0,0,1,3.62,8.35C572.81,117,572,112.58,568.9,109.8Z" transform="translate(0 -0.01)"/><path d="M565.71,72.46a19,19,0,0,0-.54-6.29c-.58-2.14-1.62-4.23-2-6.38a6.64,6.64,0,0,1-.11.72c-.29,3,1.33,5.77,2.11,8.66A16.74,16.74,0,0,1,565.71,72.46Z" transform="translate(0 -0.01)"/><path d="M670.36,105.39c-2.77,3-7.18,3.74-11.24,3.71s-8.17-.69-12.16.11c-2.78.56-5.61,1.81-8.34,1-3.77-1.09-5.28-6-8.89-6.95-4.11-1.08-7.24,4.55-10,6.79-6.75,5.4-16.22,5.35-24.85,5-3.67-.17-8.2.12-9.78,3.44a4.68,4.68,0,0,0-.29,3.23l-12.22,1.92a25,25,0,0,1-.33,3l12.55-2a4.68,4.68,0,0,1,.29-3.23c1.58-3.32,6.11-3.61,9.78-3.44,8.63.4,18.1.45,24.85-5,2.8-2.24,5.93-7.87,10-6.79,3.61.94,5.12,5.86,8.89,6.95,2.73.78,5.56-.47,8.34-1,4-.8,8.1-.14,12.16-.11s8.47-.74,11.24-3.71,3.17-7.4,3-11.72C673.24,99.94,672.55,103,670.36,105.39Z" transform="translate(0 -0.01)"/></g><g opacity="0.1"><path d="M577.79,153.42a20.39,20.39,0,0,0-3.69-1.5,9.58,9.58,0,0,1-4.83-4.94c.75,3.45,2.65,6.59,5.83,7.94a20.39,20.39,0,0,1,3.69,1.5,5.54,5.54,0,0,1,1.77,2.07C580.16,156.53,579.43,154.53,577.79,153.42Z" transform="translate(0 -0.01)"/><path d="M594.87,177.75c-4.61,1.17-10.63,1.78-13.16-2.13a6.87,6.87,0,0,0,.8,2.69c2.16,3.85,7.44,3.72,11.93,2.77Z" transform="translate(0 -0.01)"/><path d="M613.55,180.49c.64,4.06-2,8.11-5.5,10.24s-7.77,2.72-11.89,3a4.12,4.12,0,0,1-1.94-.22,2.38,2.38,0,0,0,2.94,3.22c4.12-.26,8.36-.83,11.89-3s6.17-6.21,5.49-10.28A11.46,11.46,0,0,0,613.55,180.49Z" transform="translate(0 -0.01)"/><path d="M618,144.29a16.45,16.45,0,0,1-3,14.15c-2.36,2.86-6,5.15-6.46,8.82a8.33,8.33,0,0,0,1,4.87,6.51,6.51,0,0,1,0-1.87c.51-3.67,4.1-6,6.46-8.82C619.87,156.75,620.41,149.84,618,144.29Z" transform="translate(0 -0.01)"/></g><g opacity="0.1"><path d="M497.88,578.1c3.4-1.41,7.65-1.46,10.18-4,1.78-1.78,2.21-4.35,3.44-6.48,2-3.56,6.15-5.71,10.33-6.84,14-3.8,45.92,4.32,54.24,16.09A21.81,21.81,0,0,1,579.89,589a22.59,22.59,0,0,0-3.81-14.07c-8.32-11.77-40.21-19.89-54.24-16.09-4.18,1.13-8.3,3.28-10.33,6.84-1.23,2.13-1.66,4.7-3.44,6.48-2.53,2.53-6.78,2.58-10.18,4-2.59,1.07-4.51,4.23-3.81,6.35A6.85,6.85,0,0,1,497.88,578.1Z" transform="translate(0 -0.01)"/><path d="M489.08,592.63c.42-3.2,3-6.4,6.49-6.58a2.68,2.68,0,0,1-1.53-1.71,7.77,7.77,0,0,0-5,6.29,10,10,0,0,0,0,2.45A1.71,1.71,0,0,0,489.08,592.63Z" transform="translate(0 -0.01)"/></g><rect x="609.91" y="230.23" width="91" height="118.67" fill="#fff"/><rect x="609.91" y="230.23" width="91" height="118.67" opacity="0.1" style="isolation:isolate"/><rect x="655.4" y="244.06" width="91" height="118.67" transform="translate(-41.29 123.2) rotate(-9.76)" fill="#fff"/><rect x="669.94" y="330.34" width="21.38" height="27.88" transform="translate(-48.51 120.35) rotate(-9.76)" fill="#ff8a80"/><rect x="699.1" y="325.32" width="21.38" height="27.88" transform="translate(-47.24 125.22) rotate(-9.76)" fill="#ff8a80"/><rect x="666.5" y="289.6" width="74.98" height="28.01" transform="translate(-41.23 123.51) rotate(-9.74)" fill="#ff8a80"/><rect x="658.5" y="256.81" width="74.98" height="6.25" transform="translate(-33.95 121.53) rotate(-9.74)" fill="#ff8a80"/><rect x="660.92" y="268.14" width="74.98" height="6.25" transform="translate(-35.83 122.1) rotate(-9.74)" fill="#ff8a80"/><path d="M661.08,198s-41.83,42-20.83,52.67,34.67-35.5,34.67-35.5l3.32-10.5Z" transform="translate(0 -0.01)" fill="#ae6e79"/><path d="M657.42,194.29l-5.17,11.42s25.5,3.58,30.83,11.29l-3.16-20.15-3.75-8.6Z" transform="translate(0 -0.01)" opacity="0.1" style="isolation:isolate"/><path d="M658.42,193.29l-5.17,11.42s25.5,3.58,30.83,11.29l-3.16-20.15-3.75-8.6Z" transform="translate(0 -0.01)" fill="#4c4981"/><polygon points="812.78 403.25 812.23 403.63 812.99 403.97 813.81 403.9 813.91 403.33 812.78 403.25" fill="#464a5f"/><polygon points="812.78 403.25 812.23 403.63 812.99 403.97 813.81 403.9 813.91 403.33 812.78 403.25" opacity="0.1" style="isolation:isolate"/><polygon points="812.78 403.25 812.22 403.61 811.78 403.07 812.05 402.63 812.3 402.55 812.78 403.25" fill="#9c9ca1"/><polygon points="812.78 403.25 812.22 403.61 811.78 403.07 812.05 402.63 812.3 402.55 812.78 403.25" opacity="0.1" style="isolation:isolate"/><path d="M911.21,334.15,870.27,275a4.87,4.87,0,0,0-6.77-1.26h0l-91.26,62.64A4.89,4.89,0,0,0,771,343.2l40.83,59.88Z" transform="translate(0 -0.01)" fill="#9c9ca1"/><path d="M911.21,334.15,870.27,275a4.87,4.87,0,0,0-6.77-1.26h0l-91.26,62.64A4.89,4.89,0,0,0,771,343.2l40.83,59.88Z" transform="translate(0 -0.01)" opacity="0.1" style="isolation:isolate"/><path d="M912.21,334.29l-40.94-59.13a4.88,4.88,0,0,0-6.79-1.25h0l-91.25,62.68a4.9,4.9,0,0,0-1.28,6.79l40.83,59.91Z" transform="translate(0 -0.01)" fill="#9c9ca1"/><path d="M946.43,346l-34-10.92L813,404l34.54,11.3a5.23,5.23,0,0,0,4.63-.7l94.55-66.76a1,1,0,0,0-.28-1.85Z" transform="translate(0 -0.01)" fill="#464a5f"/><path d="M946.43,346l-34-10.92L813,404l34.54,11.3a5.23,5.23,0,0,0,4.63-.7l94.55-66.76a1,1,0,0,0-.28-1.85Z" transform="translate(0 -0.01)" opacity="0.1" style="isolation:isolate"/><path d="M946.22,345.29l-34-10.93-99.44,68.93,34.54,11.28a5.19,5.19,0,0,0,4.63-.69l94.55-66.76a1,1,0,0,0,.34-1.37A1,1,0,0,0,946.22,345.29Z" transform="translate(0 -0.01)" fill="#464a5f"/><g opacity="0.1"><path d="M896.15,331.65l-2.51-3.6a1,1,0,0,0-1.36-.25l-3.73,2.49a1,1,0,0,0-.27,1.35l2.31,3.55a1,1,0,0,0,1.35.29l3.93-2.47A1,1,0,0,0,896.15,331.65Z" transform="translate(0 -0.01)"/><path d="M889.45,336.29l-2.52-3.59a1,1,0,0,0-1.36-.25L881.85,335a1,1,0,0,0-.28,1.35l2.31,3.55a1,1,0,0,0,1.35.3l3.94-2.47a1,1,0,0,0,.29-1.38Z" transform="translate(0 -0.01)"/><path d="M882.41,341.16l-2.52-3.59a1,1,0,0,0-1.36-.25l-3.73,2.51a1,1,0,0,0-.27,1.36l2.31,3.55a1,1,0,0,0,1.35.29l3.93-2.47a1,1,0,0,0,.3-1.38Z" transform="translate(0 -0.01)"/><path d="M875.28,346.1l-2.52-3.6a1,1,0,0,0-1.35-.25l-3.73,2.52a1,1,0,0,0-.27,1.35l2.31,3.55a1,1,0,0,0,1.34.3l3.94-2.48a1,1,0,0,0,.28-1.39Z" transform="translate(0 -0.01)"/><path d="M868.16,351l-2.52-3.59a1,1,0,0,0-1.36-.25l-3.72,2.51a1,1,0,0,0-.28,1.35l2.31,3.55a1,1,0,0,0,1.35.3l3.94-2.48a1,1,0,0,0,.28-1.39Z" transform="translate(0 -0.01)"/><path d="M861.35,356.41,858.22,352a.44.44,0,0,0-.62-.12h0L853,354.92a.45.45,0,0,0-.14.62h0l2.87,4.41a.47.47,0,0,0,.63.14l4.84-3a.46.46,0,0,0,.17-.63A.21.21,0,0,0,861.35,356.41Z" transform="translate(0 -0.01)"/><path d="M854.23,361.34l-3.15-4.46a.46.46,0,0,0-.64-.12h0l-4.58,3.09a.46.46,0,0,0-.12.63l2.87,4.41a.44.44,0,0,0,.6.16l0,0,4.83-3a.45.45,0,0,0,.22-.6Z" transform="translate(0 -0.01)"/><path d="M847.92,365.71l-3.13-4.42a.46.46,0,0,0-.63-.11l-4.58,3.08a.47.47,0,0,0-.13.64l2.87,4.41a.47.47,0,0,0,.63.14l4.84-3a.46.46,0,0,0,.22-.61A.38.38,0,0,0,847.92,365.71Z" transform="translate(0 -0.01)"/><path d="M840.86,370.59l-3.13-4.46a.46.46,0,0,0-.63-.11l-4.58,3.08a.46.46,0,0,0-.13.64h0l2.87,4.41a.47.47,0,0,0,.63.14l4.84-3a.47.47,0,0,0,.17-.64Z" transform="translate(0 -0.01)"/><path d="M834,375.29l-3.13-4.46a.44.44,0,0,0-.62-.12h0l-4.58,3.09a.45.45,0,0,0-.14.62h0l2.87,4.41a.47.47,0,0,0,.63.14l4.84-3a.46.46,0,0,0,.17-.63A.21.21,0,0,0,834,375.29Z" transform="translate(0 -0.01)"/><path d="M827.18,380.07l-3.1-4.47a.46.46,0,0,0-.63-.11l-4.58,3.08a.46.46,0,0,0-.13.64h0l2.87,4.41a.47.47,0,0,0,.63.14l4.84-3a.47.47,0,0,0,.14-.64Z" transform="translate(0 -0.01)"/><path d="M820.34,384.8l-3.13-4.46a.44.44,0,0,0-.62-.12h0L812,383.29a.45.45,0,0,0-.14.62h0l2.87,4.41a.47.47,0,0,0,.63.14l4.84-3a.46.46,0,0,0,.16-.63Z" transform="translate(0 -0.01)"/><path d="M891.65,325.14l-2.52-3.6a1,1,0,0,0-1.36-.25l-3.69,2.52a1,1,0,0,0-.28,1.35l2.31,3.55a1,1,0,0,0,1.35.29l3.94-2.47A1,1,0,0,0,891.65,325.14Z" transform="translate(0 -0.01)"/><path d="M881.8,310.91l-2.52-3.62a1,1,0,0,0-1.35-.25l-3.73,2.51a1,1,0,0,0-.28,1.35l2.31,3.55a1,1,0,0,0,1.35.3l3.94-2.47A1,1,0,0,0,881.8,310.91Z" transform="translate(0 -0.01)"/><path d="M884.94,329.78l-2.52-3.59a1,1,0,0,0-1.35-.25l-3.73,2.51a1,1,0,0,0-.27,1.35l2.3,3.55a1,1,0,0,0,1.35.3l3.94-2.47a1,1,0,0,0,.29-1.38Z" transform="translate(0 -0.01)"/><path d="M877.9,334.65l-2.52-3.59a1,1,0,0,0-1.36-.25l-3.72,2.48a1,1,0,0,0-.28,1.36l2.31,3.55a1,1,0,0,0,1.35.29l3.94-2.47A1,1,0,0,0,877.9,334.65Z" transform="translate(0 -0.01)"/><path d="M870.77,339.59l-2.51-3.6a1,1,0,0,0-1.36-.25l-3.73,2.55a1,1,0,0,0-.27,1.35l2.31,3.55a1,1,0,0,0,1.35.29l3.93-2.47a1,1,0,0,0,.31-1.38Z" transform="translate(0 -0.01)"/><path d="M875.25,315.78l-2.52-3.59a1,1,0,0,0-1.35-.25l-3.73,2.51a1,1,0,0,0-.28,1.35l2.31,3.55a1,1,0,0,0,1.35.3l3.94-2.47a1,1,0,0,0,.29-1.38Z" transform="translate(0 -0.01)"/><path d="M868.21,320.66l-2.52-3.6a1,1,0,0,0-1.36-.25l-3.72,2.48a1,1,0,0,0-.28,1.35l2.31,3.55a1,1,0,0,0,1.35.29l3.94-2.47A1,1,0,0,0,868.21,320.66Z" transform="translate(0 -0.01)"/><path d="M861.08,325.59,858.56,322a1,1,0,0,0-1.35-.26l-3.73,2.55a1,1,0,0,0-.27,1.35l2.31,3.55a1,1,0,0,0,1.35.3L860.8,327a1,1,0,0,0,.31-1.38Z" transform="translate(0 -0.01)"/><path d="M863.65,344.52l-2.52-3.59a1,1,0,0,0-1.35-.26l-3.7,2.52a1,1,0,0,0-.27,1.35l2.27,3.55a1,1,0,0,0,1.34.3l3.94-2.48a1,1,0,0,0,.29-1.38Z" transform="translate(0 -0.01)"/><path d="M856.53,349.45,854,345.86a1,1,0,0,0-1.36-.25l-3.72,2.51a1,1,0,0,0-.28,1.35L851,353a1,1,0,0,0,1.35.3l3.94-2.47a1,1,0,0,0,.29-1.38Z" transform="translate(0 -0.01)"/><path d="M849.72,354.83l-3.13-4.46a.44.44,0,0,0-.62-.12h0l-4.58,3.09a.45.45,0,0,0-.14.62h0l2.87,4.41a.45.45,0,0,0,.62.15h0l4.84-3a.46.46,0,0,0,.17-.63Z" transform="translate(0 -0.01)"/><path d="M843.41,359.2l-3.13-4.47a.46.46,0,0,0-.63-.11l-4.57,3.08a.47.47,0,0,0-.13.64l2.87,4.41a.47.47,0,0,0,.63.14l4.84-3a.44.44,0,0,0,.19-.59A.36.36,0,0,0,843.41,359.2Z" transform="translate(0 -0.01)"/><path d="M836.35,364.08l-3.13-4.46a.46.46,0,0,0-.63-.11L828,362.59a.45.45,0,0,0-.14.62h0l2.87,4.42a.47.47,0,0,0,.63.14l4.84-3a.47.47,0,0,0,.17-.64Z" transform="translate(0 -0.01)"/><path d="M829.51,368.82l-3.13-4.46a.44.44,0,0,0-.62-.12h0l-4.58,3.05a.45.45,0,0,0-.14.62h0l2.87,4.41a.47.47,0,0,0,.63.14l4.84-3a.47.47,0,0,0,.14-.64Z" transform="translate(0 -0.01)"/><path d="M873.21,327.88l-2.52-3.59a1,1,0,0,0-1.35-.25l-3.73,2.52a1,1,0,0,0-.27,1.35l2.31,3.55a1,1,0,0,0,1.34.29l3.94-2.47a1,1,0,0,0,.29-1.38Z" transform="translate(0 -0.01)"/><path d="M866.08,332.82l-2.52-3.6a1,1,0,0,0-1.36-.25l-3.72,2.52a1,1,0,0,0-.28,1.35l2.31,3.55a1,1,0,0,0,1.35.3l3.94-2.48a1,1,0,0,0,.28-1.39Z" transform="translate(0 -0.01)"/><path d="M859,337.75l-2.52-3.59a1,1,0,0,0-1.36-.25l-3.73,2.51a1,1,0,0,0-.27,1.35l2.31,3.55a1,1,0,0,0,1.35.3l3.93-2.48a1,1,0,0,0,.29-1.38Z" transform="translate(0 -0.01)"/><path d="M851.84,342.68l-2.52-3.59a1,1,0,0,0-1.35-.25l-3.73,2.51a1,1,0,0,0-.27,1.35l2.31,3.59a1,1,0,0,0,1.34.3l3.94-2.47a1,1,0,0,0,.32-1.38Z" transform="translate(0 -0.01)"/><path d="M845.08,348.06,842,343.6a.44.44,0,0,0-.62-.12h0l-4.58,3.09a.45.45,0,0,0-.13.63l2.87,4.42a.45.45,0,0,0,.62.14h0l4.84-3a.46.46,0,0,0,.17-.63A.21.21,0,0,0,845.08,348.06Z" transform="translate(0 -0.01)"/><path d="M838.73,352.43,835.6,348a.47.47,0,0,0-.64-.11l-4.57,3.08a.47.47,0,0,0-.13.64l2.87,4.41a.47.47,0,0,0,.63.14l4.84-3a.46.46,0,0,0,.17-.63A.21.21,0,0,0,838.73,352.43Z" transform="translate(0 -0.01)"/><path d="M831.67,357.29l-3.13-4.47a.47.47,0,0,0-.64-.11l-4.58,3.08a.49.49,0,0,0-.13.64l2.88,4.41a.47.47,0,0,0,.63.14l4.83-3a.46.46,0,0,0,.2-.61Z" transform="translate(0 -0.01)"/><path d="M824.83,362.05l-3.13-4.46a.46.46,0,0,0-.64-.12h0l-4.58,3.09a.46.46,0,0,0-.12.63l2.87,4.41a.44.44,0,0,0,.6.16l0,0,4.83-3a.46.46,0,0,0,.2-.61Z" transform="translate(0 -0.01)"/><path d="M822.67,373.55l-3.13-4.46a.46.46,0,0,0-.63-.11l-4.58,3.08a.45.45,0,0,0-.14.62h0l2.87,4.42a.47.47,0,0,0,.63.14l4.84-3a.47.47,0,0,0,.17-.64Z" transform="translate(0 -0.01)"/><path d="M815.83,378.29l-3.13-4.46a.44.44,0,0,0-.62-.12h0l-4.58,3.09a.45.45,0,0,0-.14.62h0l2.87,4.41a.47.47,0,0,0,.63.14l4.84-3a.46.46,0,0,0,.17-.63A.21.21,0,0,0,815.83,378.29Z" transform="translate(0 -0.01)"/><path d="M826.57,350l-3-4.2a.62.62,0,0,0-.85-.15l-4.32,2.91a.61.61,0,0,0-.17.85h0l2.7,4.15a.6.6,0,0,0,.82.2h0l4.57-2.87a.61.61,0,0,0,.25-.84A.08.08,0,0,0,826.57,350Z" transform="translate(0 -0.01)"/><path d="M819.73,354.69l-3-4.2a.61.61,0,0,0-.85-.16h0l-4.32,3a.6.6,0,0,0-.18.83h0l2.7,4.16a.62.62,0,0,0,.84.19l4.57-2.87a.62.62,0,0,0,.23-.85Z" transform="translate(0 -0.01)"/><path d="M812.89,359.43l-2.95-4.21a.62.62,0,0,0-.85-.15L804.77,358a.61.61,0,0,0-.17.85h0l2.7,4.15a.6.6,0,0,0,.82.2h0l4.57-2.87a.61.61,0,0,0,.2-.84Z" transform="translate(0 -0.01)"/><path d="M806.14,364.29,803,359.82a.46.46,0,0,0-.63-.11l-4.58,3.08a.47.47,0,0,0-.13.64l2.87,4.41a.47.47,0,0,0,.63.14l4.84-3a.44.44,0,0,0,.2-.59A.36.36,0,0,0,806.14,364.29Z" transform="translate(0 -0.01)"/><path d="M887.08,318.14l-2.71-3.85a1,1,0,0,0-1.36-.24l-10.58,7.41a1,1,0,0,0-.26,1.34l2.55,3.94a1,1,0,0,0,1.39.27h0l10.74-7.51A1,1,0,0,0,887.08,318.14Z" transform="translate(0 -0.01)"/><path d="M818,366.64,814.65,362a.44.44,0,0,0-.62-.12h0l-11.42,8a.45.45,0,0,0-.12.62l3.12,4.83a.47.47,0,0,0,.64.14h0l11.61-8.13A.48.48,0,0,0,818,366.64Z" transform="translate(0 -0.01)"/><path d="M854.3,330.77l-3.06-4.48a.46.46,0,0,0-.63-.12l-25.36,17.12a.45.45,0,0,0-.13.63l3.13,4.8a.47.47,0,0,0,.64.14h0l25.28-17.44a.46.46,0,0,0,.12-.64Z" transform="translate(0 -0.01)"/></g><path d="M896.82,331.77l-2.52-3.6a1,1,0,0,0-1.36-.25l-3.72,2.52a1,1,0,0,0-.28,1.35l2.31,3.55a1,1,0,0,0,1.35.3l3.94-2.48a1,1,0,0,0,.28-1.39Z" transform="translate(0 -0.01)" fill="#464a5f"/><path d="M890.08,336.41l-2.52-3.59a1,1,0,0,0-1.35-.25l-3.73,2.51a1,1,0,0,0-.28,1.35l2.31,3.55a1,1,0,0,0,1.35.3l3.94-2.47a1,1,0,0,0,.29-1.38Z" transform="translate(0 -0.01)" fill="#464a5f"/><path d="M883.08,341.29l-2.52-3.59a1,1,0,0,0-1.36-.25L875.48,340a1,1,0,0,0-.28,1.35l2.31,3.55a1,1,0,0,0,1.35.29l3.94-2.47a1,1,0,0,0,.29-1.38Z" transform="translate(0 -0.01)" fill="#464a5f"/><path d="M875.94,346.22l-2.52-3.6a1,1,0,0,0-1.35-.25l-3.73,2.52a1,1,0,0,0-.27,1.39h0l2.31,3.55a1,1,0,0,0,1.35.3l3.93-2.48a1,1,0,0,0,.31-1.38Z" transform="translate(0 -0.01)" fill="#464a5f"/><path d="M868.82,351.15l-2.52-3.59a1,1,0,0,0-1.35-.25l-3.73,2.51a1,1,0,0,0-.27,1.35l2.3,3.55a1,1,0,0,0,1.35.3l3.94-2.48a1,1,0,0,0,.28-1.39Z" transform="translate(0 -0.01)" fill="#464a5f"/><path d="M862,356.53l-3.13-4.46a.44.44,0,0,0-.62-.12h0L853.67,355a.45.45,0,0,0-.14.62h0l2.87,4.41a.47.47,0,0,0,.63.14l4.84-3a.46.46,0,0,0,.17-.63Z" transform="translate(0 -0.01)" fill="#464a5f"/><path d="M854.89,361.46,851.76,357a.46.46,0,0,0-.64-.12h0L846.55,360a.45.45,0,0,0-.14.62h0l2.87,4.42a.45.45,0,0,0,.62.14h0l4.84-3a.47.47,0,0,0,.16-.64Z" transform="translate(0 -0.01)" fill="#464a5f"/><path d="M848.58,365.83l-3.13-4.47a.46.46,0,0,0-.63-.11l-4.58,3a.47.47,0,0,0-.13.64l2.87,4.41a.47.47,0,0,0,.63.14l4.84-3a.47.47,0,0,0,.14-.64Z" transform="translate(0 -0.01)" fill="#464a5f"/><path d="M841.52,370.72l-3.13-4.43a.46.46,0,0,0-.63-.11l-4.58,3.08a.46.46,0,0,0-.13.64h0l2.87,4.41a.47.47,0,0,0,.63.14l4.84-3a.46.46,0,0,0,.21-.62A.44.44,0,0,0,841.52,370.72Z" transform="translate(0 -0.01)" fill="#464a5f"/><path d="M834.68,375.45,831.55,371a.44.44,0,0,0-.62-.12h0L826.34,374a.45.45,0,0,0-.14.62h0l2.87,4.41a.45.45,0,0,0,.62.15h0l4.84-3a.46.46,0,0,0,.17-.63A.21.21,0,0,0,834.68,375.45Z" transform="translate(0 -0.01)" fill="#464a5f"/><path d="M827.84,380.19l-3.13-4.47a.46.46,0,0,0-.63-.11l-4.58,3.08a.47.47,0,0,0-.13.64l2.87,4.41a.47.47,0,0,0,.63.14l4.84-3a.46.46,0,0,0,.17-.63A.21.21,0,0,0,827.84,380.19Z" transform="translate(0 -0.01)" fill="#464a5f"/><path d="M821,384.92l-3.13-4.46a.44.44,0,0,0-.62-.12h0l-4.58,3.09a.45.45,0,0,0-.14.62h0l2.87,4.41a.45.45,0,0,0,.62.15h0l4.84-3A.46.46,0,0,0,821,385,.21.21,0,0,0,821,384.92Z" transform="translate(0 -0.01)" fill="#464a5f"/><path d="M892.31,325.29l-2.52-3.6a1,1,0,0,0-1.35-.25L884.71,324a1,1,0,0,0-.27,1.35l2.3,3.55a1,1,0,0,0,1.35.3l3.94-2.48a1,1,0,0,0,.28-1.39Z" transform="translate(0 -0.01)" fill="#464a5f"/><path d="M882.46,311l-2.52-3.59a1,1,0,0,0-1.35-.25l-3.73,2.51a1,1,0,0,0-.27,1.35l2.31,3.55a1,1,0,0,0,1.34.3l3.94-2.47a1,1,0,0,0,.29-1.38Z" transform="translate(0 -0.01)" fill="#464a5f"/><path d="M885.6,329.9l-2.52-3.61a1,1,0,0,0-1.35-.25L878,328.55a1,1,0,0,0-.27,1.35l2.31,3.55a1,1,0,0,0,1.34.3l3.94-2.47A1,1,0,0,0,885.6,329.9Z" transform="translate(0 -0.01)" fill="#464a5f"/><path d="M878.56,334.77l-2.48-3.59a1,1,0,0,0-1.35-.25L871,333.44a1,1,0,0,0-.27,1.36l2.3,3.55a1,1,0,0,0,1.35.29l3.94-2.47a1,1,0,0,0,.25-1.39Z" transform="translate(0 -0.01)" fill="#464a5f"/><path d="M871.44,339.71l-2.52-3.6a1,1,0,0,0-1.36-.25l-3.72,2.52a1,1,0,0,0-.28,1.35l2.31,3.55a1,1,0,0,0,1.35.3l3.94-2.48a1,1,0,0,0,.28-1.39Z" transform="translate(0 -0.01)" fill="#464a5f"/><path d="M875.91,315.9l-2.52-3.61A1,1,0,0,0,872,312l-3.73,2.51a1,1,0,0,0-.27,1.35l2.31,3.55a1,1,0,0,0,1.34.3l3.94-2.47A1,1,0,0,0,875.91,315.9Z" transform="translate(0 -0.01)" fill="#464a5f"/><path d="M868.87,320.78l-2.52-3.6a1,1,0,0,0-1.35-.25l-3.73,2.52a1,1,0,0,0-.28,1.35l2.31,3.55a1,1,0,0,0,1.35.3l3.94-2.48a1,1,0,0,0,.28-1.39Z" transform="translate(0 -0.01)" fill="#464a5f"/><path d="M861.75,325.71l-2.52-3.59a1,1,0,0,0-1.36-.25l-3.72,2.51a1,1,0,0,0-.28,1.35l2.31,3.56a1,1,0,0,0,1.35.3l3.93-2.48a1,1,0,0,0,.3-1.38Z" transform="translate(0 -0.01)" fill="#464a5f"/><path d="M864.31,344.64l-2.52-3.59a1,1,0,0,0-1.35-.25l-3.73,2.49a1,1,0,0,0-.27,1.35l2.31,3.55a1,1,0,0,0,1.34.3L864,346A1,1,0,0,0,864.31,344.64Z" transform="translate(0 -0.01)" fill="#464a5f"/><path d="M857.19,349.57,854.67,346a1,1,0,0,0-1.35-.25l-3.73,2.56a1,1,0,0,0-.28,1.35l2.31,3.55a1,1,0,0,0,1.35.3l3.94-2.47a1,1,0,0,0,.33-1.38Z" transform="translate(0 -0.01)" fill="#464a5f"/><path d="M850.38,355l-3.13-4.46a.44.44,0,0,0-.62-.12h0l-4.54,3.09a.45.45,0,0,0-.14.62h0l2.87,4.41a.45.45,0,0,0,.62.15h0l4.84-3a.47.47,0,0,0,.12-.65Z" transform="translate(0 -0.01)" fill="#464a5f"/><path d="M844.08,359.29,841,354.82a.47.47,0,0,0-.64-.11l-4.58,3.08a.49.49,0,0,0-.13.64l2.88,4.41a.47.47,0,0,0,.63.14l4.83-3a.46.46,0,0,0,.2-.61Z" transform="translate(0 -0.01)" fill="#464a5f"/><path d="M837,364.21l-3.13-4.47a.46.46,0,0,0-.63-.11l-4.58,3.08a.47.47,0,0,0-.13.64l2.87,4.41a.47.47,0,0,0,.63.14l4.84-3a.44.44,0,0,0,.2-.59A.36.36,0,0,0,837,364.21Z" transform="translate(0 -0.01)" fill="#464a5f"/><path d="M830.18,368.94l-3.1-4.46a.44.44,0,0,0-.62-.12h0l-4.58,3.09a.45.45,0,0,0-.13.63l2.87,4.41a.47.47,0,0,0,.63.14l4.84-3a.45.45,0,0,0,.15-.62Z" transform="translate(0 -0.01)" fill="#464a5f"/><path d="M873.87,328l-2.51-3.6a1,1,0,0,0-1.36-.25l-3.73,2.52A1,1,0,0,0,866,328l2.31,3.55a1,1,0,0,0,1.35.29l3.93-2.47a1,1,0,0,0,.28-1.39Z" transform="translate(0 -0.01)" fill="#464a5f"/><path d="M866.75,332.94l-2.52-3.59a1,1,0,0,0-1.35-.26l-3.73,2.52a1,1,0,0,0-.27,1.35l2.31,3.55a1,1,0,0,0,1.34.3l3.94-2.48a1,1,0,0,0,.28-1.39Z" transform="translate(0 -0.01)" fill="#464a5f"/><path d="M859.63,337.87l-2.55-3.58a1,1,0,0,0-1.36-.25l-3.64,2.5a1,1,0,0,0-.28,1.35l2.31,3.55a1,1,0,0,0,1.35.3l3.94-2.47a1,1,0,0,0,.23-1.39Z" transform="translate(0 -0.01)" fill="#464a5f"/><path d="M852.5,342.8,850,339.21a1,1,0,0,0-1.35-.25l-3.73,2.51a1,1,0,0,0-.27,1.35l2.31,3.55a1,1,0,0,0,1.34.3l3.94-2.47a1,1,0,0,0,.29-1.38Z" transform="translate(0 -0.01)" fill="#464a5f"/><path d="M845.7,348.18l-3.13-4.46a.46.46,0,0,0-.64-.12h0l-4.58,3.09a.45.45,0,0,0-.13.63l2.87,4.42a.46.46,0,0,0,.64.13h0l4.83-3a.45.45,0,0,0,.18-.62A.16.16,0,0,0,845.7,348.18Z" transform="translate(0 -0.01)" fill="#464a5f"/><path d="M839.39,352.55l-3.13-4.46a.44.44,0,0,0-.62-.12h0l-4.55,3.08a.47.47,0,0,0-.13.64l2.87,4.41a.47.47,0,0,0,.63.14l4.84-3a.47.47,0,0,0,.14-.64Z" transform="translate(0 -0.01)" fill="#464a5f"/><path d="M832.33,357.44,829.2,353a.47.47,0,0,0-.64-.11L824,355.94a.47.47,0,0,0-.13.64l2.87,4.41a.47.47,0,0,0,.63.14l4.84-3a.46.46,0,0,0,.17-.63A.21.21,0,0,0,832.33,357.44Z" transform="translate(0 -0.01)" fill="#464a5f"/><path d="M825.49,362.17l-3.13-4.46a.46.46,0,0,0-.64-.12h0l-4.57,3.09a.45.45,0,0,0-.14.62h0l2.87,4.42a.45.45,0,0,0,.62.14h0l4.84-3a.47.47,0,0,0,.16-.64Z" transform="translate(0 -0.01)" fill="#464a5f"/><path d="M823.34,373.68l-3.13-4.47a.47.47,0,0,0-.64-.11L815,372.18a.47.47,0,0,0-.13.64l2.87,4.41a.47.47,0,0,0,.63.14l4.84-3a.46.46,0,0,0,.2-.61Z" transform="translate(0 -0.01)" fill="#464a5f"/><path d="M816.5,378.41,813.37,374a.46.46,0,0,0-.64-.12h0l-4.58,3.09a.45.45,0,0,0-.13.63l2.87,4.41a.46.46,0,0,0,.63.14h0l4.83-3a.46.46,0,0,0,.2-.61Z" transform="translate(0 -0.01)" fill="#464a5f"/><path d="M827.23,350.08l-3-4.21a.62.62,0,0,0-.85-.15l-4.35,2.91a.62.62,0,0,0-.17.85l2.7,4.16a.62.62,0,0,0,.85.18L827,351a.61.61,0,0,0,.23-.83A.08.08,0,0,0,827.23,350.08Z" transform="translate(0 -0.01)" fill="#464a5f"/><path d="M820.39,354.81l-2.95-4.2a.61.61,0,0,0-.85-.16h0l-4.32,2.92a.61.61,0,0,0-.17.84l2.7,4.16a.63.63,0,0,0,.85.19l4.57-2.87a.62.62,0,0,0,.17-.87Z" transform="translate(0 -0.01)" fill="#464a5f"/><path d="M813.55,359.55l-3-4.21a.61.61,0,0,0-.84-.15l-4.33,2.91a.62.62,0,0,0-.17.85l2.7,4.16a.62.62,0,0,0,.85.18l4.57-2.87a.61.61,0,0,0,.25-.83Z" transform="translate(0 -0.01)" fill="#464a5f"/><path d="M806.81,364.42,803.68,360a.47.47,0,0,0-.64-.11l-4.58,3.08a.46.46,0,0,0-.12.64l2.87,4.41a.47.47,0,0,0,.63.14l4.84-3a.46.46,0,0,0,.17-.63A.21.21,0,0,0,806.81,364.42Z" transform="translate(0 -0.01)" fill="#464a5f"/><path d="M887.75,318.29l-2.67-3.86a1,1,0,0,0-1.36-.24l-10.64,7.41a1,1,0,0,0-.26,1.34l2.56,3.94a1,1,0,0,0,1.39.27h0l10.73-7.51A1,1,0,0,0,887.75,318.29Z" transform="translate(0 -0.01)" fill="#464a5f"/><path d="M818.63,366.76l-3.32-4.69a.44.44,0,0,0-.62-.12h0l-11.42,8a.46.46,0,0,0-.12.63l3.13,4.82a.47.47,0,0,0,.64.14h0l11.61-8.13A.47.47,0,0,0,818.63,366.76Z" transform="translate(0 -0.01)" fill="#464a5f"/><path d="M855,330.89l-3-4.45a.47.47,0,0,0-.64-.13L826,343.41a.45.45,0,0,0-.14.62h0l3.12,4.8a.47.47,0,0,0,.64.14h0l25.28-17.44A.47.47,0,0,0,855,330.89Z" transform="translate(0 -0.01)" fill="#464a5f"/><path d="M855.08,315.61,841.6,296a2.5,2.5,0,0,0-3.46-.66L801,320.29a2.51,2.51,0,0,0-.67,3.49h0l13.74,20.15a2.5,2.5,0,0,0,3.47.67h0l36.87-25.51a2.5,2.5,0,0,0,.65-3.46Z" transform="translate(0 -0.01)" opacity="0.1" style="isolation:isolate"/><path d="M855.7,315.73l-13.48-19.59a2.51,2.51,0,0,0-3.46-.66l-37.08,24.95a2.51,2.51,0,0,0-.7,3.47l0,0,13.7,20.13a2.5,2.5,0,0,0,3.47.67h0l36.89-25.51a2.49,2.49,0,0,0,.62-3.47Z" transform="translate(0 -0.01)" fill="#939498"/><path d="M939.29,347.39l-28.6-9.54L819,401.57l28.39,9.25a5.2,5.2,0,0,0,4.59-.68l87.61-60.92a1,1,0,0,0,.35-1.37A1,1,0,0,0,939.29,347.39Z" transform="translate(0 -0.01)" fill="#ff8a80"/></svg>